<?xml version="1.0" standalone="no"?><!DOCTYPE svg PUBLIC "-//W3C//DTD SVG 1.1//EN" "http://www.w3.org/Graphics/SVG/1.1/DTD/svg11.dtd"><svg t="1715249045482" class="icon" viewBox="0 0 1024 1024" version="1.1" xmlns="http://www.w3.org/2000/svg" p-id="47836" xmlns:xlink="http://www.w3.org/1999/xlink" width="200" height="200"><path d="M458.09664 646.73792V377.26208a187.47392 187.47392 0 0 1 188.64128-188.6208h107.78624V107.76576C754.52416 48.49664 706.02752 0 646.73792 0H107.78624C48.49664 0 0 48.49664 0 107.78624v808.42752C0 975.4624 48.49664 1024 107.78624 1024H646.7584c59.2896 0 107.78624-48.51712 107.78624-107.78624v-80.85504h-107.78624a187.47392 187.47392 0 0 1-188.6208-188.6208zM148.21376 485.04832c-21.56544 0-40.42752-18.8416-40.42752-40.40704s18.86208-40.42752 40.42752-40.42752c21.54496 0 40.40704 18.8416 40.40704 40.42752 0 21.54496-18.8416 40.40704-40.40704 40.40704z m768-215.57248H646.73792c-59.2896 0-107.78624 48.49664-107.78624 107.78624v269.47584c0 59.2896 48.49664 107.78624 107.78624 107.78624h269.47584c59.26912 0 107.78624-48.49664 107.78624-107.78624V377.26208c0-59.2896-48.51712-107.78624-107.78624-107.78624zM679.05536 633.2416a27.11552 27.11552 0 0 1-40.40704 2.68288c-29.63456-32.33792-45.81376-75.44832-45.81376-123.94496 0-48.51712 16.1792-91.62752 45.81376-123.96544 10.79296-13.47584 29.63456-10.77248 40.42752 0a28.32384 28.32384 0 0 1 0 35.0208c-18.86208 24.2688-32.33792 53.90336-32.33792 86.24128 0 32.3584 13.47584 64.67584 32.33792 86.2208 8.06912 13.49632 8.06912 26.95168 0 37.74464z m56.60672-94.3104c5.38624 10.77248 5.38624 21.54496-2.70336 29.63456-10.77248 13.47584-32.33792 13.47584-43.1104-2.70336-10.77248-13.45536-16.1792-32.31744-16.1792-53.88288 0-21.56544 5.40672-40.42752 16.1792-56.58624 10.77248-16.1792 32.3584-16.1792 43.1104-2.70336 8.0896 8.0896 8.0896 21.56544 2.70336 29.63456-5.38624 8.0896-8.0896 16.1792-8.0896 26.95168 0 10.79296 2.70336 21.56544 8.0896 29.65504z m45.81376 0c-16.1792 0-26.95168-10.79296-26.95168-26.95168 0-16.1792 10.77248-26.95168 26.95168-26.95168s26.95168 10.77248 26.95168 26.95168-10.79296 26.95168-26.95168 26.95168z m48.49664 32.33792c-8.06912-8.0896-8.06912-21.56544-2.70336-29.65504 5.40672-8.06912 8.0896-16.1792 8.0896-26.95168s-2.68288-18.8416-8.0896-26.9312c-5.36576-10.79296-5.36576-21.56544 2.70336-29.65504 10.77248-13.45536 32.33792-13.45536 43.1104 2.70336 10.79296 16.1792 16.1792 35.0208 16.1792 56.58624s-5.38624 40.42752-16.1792 56.58624c-10.77248 10.79296-32.31744 10.79296-43.1104-2.68288z m94.3104 64.67584c-10.77248 13.47584-29.63456 10.77248-40.40704 0a28.34432 28.34432 0 0 1 0-35.04128c18.8416-24.24832 32.33792-53.90336 32.33792-86.2208 0-32.3584-13.47584-64.67584-32.3584-86.24128a28.34432 28.34432 0 0 1 0-35.0208c10.79296-13.47584 29.65504-13.47584 40.42752 0 29.65504 32.31744 45.81376 75.44832 45.81376 123.94496 0 48.49664-16.1792 86.2208-45.81376 118.5792z" fill="#2590FF" p-id="47837"></path></svg>