<?xml version="1.0" standalone="no"?><!DOCTYPE svg PUBLIC "-//W3C//DTD SVG 1.1//EN" "http://www.w3.org/Graphics/SVG/1.1/DTD/svg11.dtd"><svg t="1715249324807" class="icon" viewBox="0 0 1024 1024" version="1.1" xmlns="http://www.w3.org/2000/svg" p-id="63158" xmlns:xlink="http://www.w3.org/1999/xlink" width="200" height="200"><path d="M571.2 40.2H534V16.1h-47.6v24.1h-38.1l-19.7 69.2h162.3z" fill="#2D416C" p-id="63159"></path><path d="M509.8 16.1h-23.4v24.1h-38.1l-19.7 69.2h81.2z" fill="#1A7FC0" p-id="63160"></path><path d="M512 546.7m-461.9 0a461.9 461.9 0 1 0 923.8 0 461.9 461.9 0 1 0-923.8 0Z" fill="#83C6EF" p-id="63161"></path><path d="M512 84.8c-0.7 0-1.5 0.1-2.2 0.1v923.6c0.7 0 1.5 0.1 2.2 0.1 255.1 0 461.9-206.8 461.9-461.9S767.1 84.8 512 84.8z" fill="#429BCF" p-id="63162"></path><path d="M512 546.7m-386.4 0a386.4 386.4 0 1 0 772.8 0 386.4 386.4 0 1 0-772.8 0Z" fill="#FFFFFF" p-id="63163"></path><path d="M497.9 160.5h28.2v44h-28.2zM497.9 889h28.2v44h-28.2zM306.659 219.28l24.42-14.1 22 38.104-24.42 14.1zM670.86 850.185l24.422-14.1 22 38.104-24.422 14.1zM170.41 365.796l14.1-24.421 38.104 22-14.1 24.421zM801.343 730.075l14.1-24.421 38.104 22-14.1 24.42zM125.763 560.825v-28.2h44v28.2zM854.252 560.913v-28.2h44v28.2zM184.492 752.07l-14.1-24.42 38.104-22 14.1 24.42zM815.337 387.861l-14.1-24.42 38.104-22 14.1 24.42zM331.043 888.355l-24.421-14.1 22-38.104 24.421 14.1zM695.33 257.48l-24.422-14.1 22-38.104 24.421 14.1zM512 281.4l-36.6 265.4h73.2z" fill="#2D416C" p-id="63164"></path><path d="M512 807.8l-36.6-265.4h73.2z" fill="#2D416C" p-id="63165"></path><path d="M775.2 544.6L509.8 508v73.2z" fill="#2D416C" p-id="63166"></path><path d="M248.8 544.6L514.2 508v73.2z" fill="#2D416C" p-id="63167"></path><path d="M512 546.7m-161 0a161 161 0 1 0 322 0 161 161 0 1 0-322 0Z" fill="#429BCF" p-id="63168"></path><path d="M512 546.7m-128.4 0a128.4 128.4 0 1 0 256.8 0 128.4 128.4 0 1 0-256.8 0Z" fill="#FFFFFF" p-id="63169"></path><path d="M277.1 787.7l191.7-282.5 90.8 90.8z" fill="#DA3329" p-id="63170"></path><path d="M751.3 313.5L468.8 505.2l90.8 90.8z" fill="#FFCC5A" p-id="63171"></path><path d="M751.3 313.5L514.2 550.6l45.4 45.4z" fill="#FFB103" p-id="63172"></path><path d="M277.1 787.7l237.1-237.1 45.4 45.4z" fill="#C11B16" p-id="63173"></path></svg>