<?xml version="1.0" standalone="no"?><!DOCTYPE svg PUBLIC "-//W3C//DTD SVG 1.1//EN" "http://www.w3.org/Graphics/SVG/1.1/DTD/svg11.dtd"><svg t="1715253164812" class="icon" viewBox="0 0 1024 1024" version="1.1" xmlns="http://www.w3.org/2000/svg" p-id="32554" xmlns:xlink="http://www.w3.org/1999/xlink" width="200" height="200"><path d="M677.2224 99.1744H363.776A139.1616 139.1616 0 0 0 243.3536 168.96l-156.672 271.36a139.008 139.008 0 0 0 0 139.008l156.672 271.36a139.1616 139.1616 0 0 0 120.4224 69.5296h313.4464a139.1104 139.1104 0 0 0 120.4224-69.5296l156.7232-271.36a139.008 139.008 0 0 0 0-139.008l-156.7232-271.36a139.1104 139.1104 0 0 0-120.4224-69.7856z" fill="#B095FF" p-id="32555"></path><path d="M520.4992 321.2288a188.416 188.416 0 1 0 188.416 188.416 188.6208 188.6208 0 0 0-188.416-188.416z m0 300.032a111.616 111.616 0 1 1 111.616-111.616 111.7184 111.7184 0 0 1-111.616 111.616z" fill="#FFCD43" p-id="32556"></path></svg>