<?xml version="1.0" standalone="no"?><!DOCTYPE svg PUBLIC "-//W3C//DTD SVG 1.1//EN" "http://www.w3.org/Graphics/SVG/1.1/DTD/svg11.dtd"><svg t="1715252672516" class="icon" viewBox="0 0 1024 1024" version="1.1" xmlns="http://www.w3.org/2000/svg" p-id="2491" xmlns:xlink="http://www.w3.org/1999/xlink" width="200" height="200"><path d="M1014.064378 313.997379c-3.217314-141.927403-127.010767-169.128328-127.010768-169.128327s-96.519409-0.584966-221.921519-1.608657L756.386805 55.149874s14.404791-18.13395-10.163787-38.388401c-24.495456-20.327572-26.104113-11.260598-34.659242-5.849661-7.458318 5.264695-116.846981 112.532856-136.004621 131.690496-49.648999 0-101.4185-0.511845-151.579344-0.511845h17.622104S311.00823 13.105435 302.37998 7.182653c-8.555129-5.849661-9.57882-14.404791-34.659243 5.849661C243.152161 33.433007 257.556951 51.493836 257.556951 51.493836l93.375216 90.669747c-101.345379 0-188.870934 0.511845-229.379837 2.193623C-9.699442 182.087521 0.391223 313.997379 0.391223 313.997379s1.608657 282.684874 0 425.70909c14.404791 142.951094 124.305299 165.911014 124.3053 165.911014s43.799338 1.023691 76.338077 1.02369c3.217314 9.066975 5.849661 53.890003 56.010506 53.890004 49.575878 0 56.010505-53.890003 56.010505-53.890004s365.45758-1.608657 395.802697-1.608656c1.608657 15.501602 9.140096 56.595472 59.227819 56.010505 49.648999-1.023691 53.378158-59.227819 53.378158-59.227819s17.037138-1.535536 67.782948 0c118.455638-21.863109 125.32899-160.573198 125.32899-160.573198s-2.193623-285.390343-0.511845-427.317746z m-101.930345 452.325048c0 22.448075-17.548983 40.582024-39.485213 40.582024h-720.239528c-21.789988 0-39.485213-18.13395-39.485212-40.582024v-477.478591c0-22.374954 17.695225-40.508903 39.485212-40.508903h720.239528c21.936229 0 39.485213 18.13395 39.485213 40.582024v477.478591z" fill="#1296DB" p-id="2492"></path><path d="M404.456566 387.337506l-202.983241 38.900246 17.402742 76.118716 200.93586-38.827126-15.355361-76.191836z m109.461785 201.959551c-49.648999 106.317591-94.106424 26.104113-94.106424 26.104113l-33.196827 21.424383S451.985063 726.39849 514.430196 658.396179c73.559489 68.002311 129.789357-21.936229 129.789356-21.936229l-30.125754-19.450124c0-0.511845-52.64695 75.60687-100.175447-27.639649z m100.175447-125.767715l201.447705 38.827126 16.817776-76.118716-202.398276-38.900246-15.867205 76.191836z" fill="#1296DB" p-id="2493"></path></svg>