<?xml version="1.0" standalone="no"?><!DOCTYPE svg PUBLIC "-//W3C//DTD SVG 1.1//EN" "http://www.w3.org/Graphics/SVG/1.1/DTD/svg11.dtd"><svg t="1715249715387" class="icon" viewBox="0 0 1024 1024" version="1.1" xmlns="http://www.w3.org/2000/svg" p-id="85160" xmlns:xlink="http://www.w3.org/1999/xlink" width="200" height="200"><path d="M740.9664 929.4848H289.7408c-113.1008 0-204.8-91.6992-204.8-204.8V277.1456c0-113.1008 91.6992-204.8 204.8-204.8h451.2256c113.1008 0 204.8 91.6992 204.8 204.8v447.5392c0 113.1008-91.6992 204.8-204.8 204.8z" fill="#aaaaf8" p-id="85161"></path><path d="M753.5616 311.7056a38.41024 38.41024 0 0 0-54.3232 0l-433.1008 433.1008a38.41024 38.41024 0 0 0 0 54.3232 38.31296 38.31296 0 0 0 27.136 11.264c9.8304 0 19.6608-3.7376 27.136-11.264l433.1008-433.1008a38.36416 38.36416 0 0 0 0.0512-54.3232zM826.4704 727.0912h-221.2352c-21.1968 0-38.4 17.2032-38.4 38.4s17.2032 38.4 38.4 38.4h221.2352c21.1968 0 38.4-17.2032 38.4-38.4s-17.152-38.4-38.4-38.4zM259.84 452.3008c0 21.1968 17.2032 38.4 38.4 38.4s38.4-17.2032 38.4-38.4v-72.192h72.2432c21.1968 0 38.4-17.2032 38.4-38.4s-17.2032-38.4-38.4-38.4H336.64V231.0656c0-21.1968-17.2032-38.4-38.4-38.4s-38.4 17.2032-38.4 38.4v72.2432H187.5968c-21.1968 0-38.4 17.2032-38.4 38.4s17.2032 38.4 38.4 38.4h72.2432v72.192z" fill="#FFCD43" p-id="85162"></path></svg>