<?xml version="1.0" standalone="no"?><!DOCTYPE svg PUBLIC "-//W3C//DTD SVG 1.1//EN" "http://www.w3.org/Graphics/SVG/1.1/DTD/svg11.dtd"><svg t="1714980065241" class="icon" viewBox="0 0 1024 1024" version="1.1" xmlns="http://www.w3.org/2000/svg" p-id="11073" xmlns:xlink="http://www.w3.org/1999/xlink" width="200" height="200"><path d="M532.523781 653.790711h-40.51207c-11.186971 0-20.255523 9.0706-20.255524 20.255524v40.514118c0 11.184923 9.068552 20.255523 20.255524 20.255524h40.51207c11.186971 0 20.255523-9.0706 20.255524-20.255524V674.047259c0.001024-11.185947-9.067528-20.256547-20.255524-20.256548z m0-141.790711h-40.51207c-11.186971 0-20.255523 9.0706-20.255524 20.255523v40.512071c0 11.186971 9.068552 20.257571 20.255524 20.257571h40.51207c11.186971 0 20.255523-9.0706 20.255524-20.257571v-40.512071c0.001024-11.184923-9.067528-20.255523-20.255524-20.255523z m-182.302782 0h-40.51207c-11.186971 0-20.255523 9.0706-20.255524 20.255523v40.512071c0 11.186971 9.068552 20.257571 20.255524 20.257571h40.51207c11.184923 0 20.255523-9.0706 20.255524-20.257571v-40.512071c0-11.184923-9.0706-20.255523-20.255524-20.255523z m425.373158-384.862111H248.941335c-44.748908 0-81.023117 36.276257-81.023118 81.025165v607.674916c0 44.748908 36.274209 81.023117 81.023118 81.023118h526.652822c44.74686 0 81.023117-36.274209 81.023118-81.023118V208.164078c0.001024-44.749932-36.275233-81.026189-81.023118-81.026189z m40.512071 688.702129c0 22.374966-18.137105 40.512071-40.512071 40.512071H248.941335c-22.374966 0-40.512071-18.137105-40.512071-40.512071v-607.67594c0-22.374966 18.137105-40.512071 40.512071-40.512071h526.652822c22.374966 0 40.512071 18.137105 40.512071 40.512071v607.67594zM350.220999 653.790711h-40.51207c-11.186971 0-20.255523 9.0706-20.255524 20.255524v40.514118c0 11.184923 9.068552 20.255523 20.255524 20.255524h40.51207c11.184923 0 20.255523-9.0706 20.255524-20.255524V674.047259c0-11.185947-9.0706-20.256547-20.255524-20.256548z m364.605564-141.790711h-40.51207c-11.186971 0-20.255523 9.0706-20.255524 20.255523v40.512071c0 11.186971 9.068552 20.257571 20.255524 20.257571h40.51207c11.186971 0 20.255523-9.0706 20.255524-20.257571v-40.512071c0.001024-11.184923-9.067528-20.255523-20.255524-20.255523z m-20.255523-263.326923h-364.605564c-22.374966 0-40.512071 18.139152-40.512071 40.51207v81.025165c0 22.374966 18.137105 40.510023 40.512071 40.510023h364.605564c22.372918 0 40.512071-18.135057 40.512071-40.510023v-81.025165c0-22.372918-18.139152-40.512071-40.512071-40.51207z m0 121.537235h-364.605564v-81.023117h364.605564v81.023117z m20.255523 283.580399h-40.51207c-11.186971 0-20.255523 9.0706-20.255524 20.255524v40.514118c0 11.184923 9.068552 20.255523 20.255524 20.255524h40.51207c11.186971 0 20.255523-9.0706 20.255524-20.255524V674.047259c0.001024-11.185947-9.067528-20.256547-20.255524-20.256548z" fill="#BFBFBF" p-id="11074"></path></svg>