<?xml version="1.0" standalone="no"?><!DOCTYPE svg PUBLIC "-//W3C//DTD SVG 1.1//EN" "http://www.w3.org/Graphics/SVG/1.1/DTD/svg11.dtd"><svg t="1714979393908" class="icon" viewBox="0 0 1024 1024" version="1.1" xmlns="http://www.w3.org/2000/svg" p-id="4796" xmlns:xlink="http://www.w3.org/1999/xlink" width="200" height="200"><path d="M156.3648 374.9376c2.304 0 3.1744-2.4064 1.9456-5.3248-1.792-4.2496 1.28-5.2224 15.9744-5.0688l18.2272 0.2048 49.8176 52.9408 49.8688 52.9408h82.3296c52.8896 0 82.2784-1.2288 82.2784-3.584 0-1.9456-19.968-59.904-44.3904-128.768-24.4224-68.864-44.3904-127.1296-44.3904-129.3824 0-2.816 10.3424-4.096 32.256-4.096h32.2048l112.7936 132.9152 112.7936 132.9152h107.8272c120.7296 0 126.1056 0.8704 144.64 23.2448 9.216 11.0592 11.0592 16.6912 11.0592 33.8432 0 23.04-6.9632 34.7648-28.7744 48.384-12.4928 7.8336-15.0016 7.9872-123.4944 7.9872h-110.7968l-112.8448 132.9152L432.7424 849.92H400.384c-21.4016 0-32.256-1.3312-32.256-4.0448 0-2.1504 20.224-61.1328 45.056-131.072 24.7808-69.888 44.3392-127.744 43.3664-128.5632-0.9216-0.9216-39.168-0.7168-85.0432 0.4096l-83.3536 1.9968-47.8208 50.7904-47.8208 50.688-18.2272 0.1536c-14.6432 0.1024-17.7664-0.9216-15.9744-5.1712 1.2288-2.9184 0.512-5.3248-1.6384-5.3248s6.4-32.256 18.8928-71.6288c12.4928-39.424 22.7328-75.8784 22.7328-81.0496 0-7.168-34.0992-120.832-44.3392-147.712-0.9728-2.4064 0.1536-4.4544 2.4064-4.4544z" fill="#9E9E9E" p-id="4797"></path></svg>