<?xml version="1.0" standalone="no"?><!DOCTYPE svg PUBLIC "-//W3C//DTD SVG 1.1//EN" "http://www.w3.org/Graphics/SVG/1.1/DTD/svg11.dtd"><svg t="1715219895985" class="icon" viewBox="0 0 1024 1024" version="1.1" xmlns="http://www.w3.org/2000/svg" p-id="1488" xmlns:xlink="http://www.w3.org/1999/xlink" width="200" height="200"><path d="M813.666 519.458a15 15 0 0 0 0-15l-144.338-250a15 15 0 0 0-12.99-7.5H367.66a15 15 0 0 0-12.99 7.5l-144.338 250a15 15 0 0 0 0 15l144.338 250a15 15 0 0 0 12.99 7.5H656.34a15 15 0 0 0 12.99-7.5l144.338-250z m-66.396 295a105 105 0 0 1-90.932 52.5H367.66a105 105 0 0 1-90.932-52.5l-144.338-250a105 105 0 0 1 0-105l144.338-250a105 105 0 0 1 90.932-52.5H656.34a105 105 0 0 1 90.932 52.5l144.338 250a105 105 0 0 1 0 105l-144.338 250z" fill="#444444" p-id="1489"></path><path d="M512 657c-80.08 0-145-64.92-145-145s64.92-145 145-145 145 64.92 145 145-64.92 145-145 145z m0-90c30.376 0 55-24.624 55-55s-24.624-55-55-55-55 24.624-55 55 24.624 55 55 55z" fill="#444444" p-id="1490"></path></svg>