<?xml version="1.0" standalone="no"?><!DOCTYPE svg PUBLIC "-//W3C//DTD SVG 1.1//EN" "http://www.w3.org/Graphics/SVG/1.1/DTD/svg11.dtd"><svg t="1714979937074" class="icon" viewBox="0 0 1024 1024" version="1.1" xmlns="http://www.w3.org/2000/svg" p-id="9818" xmlns:xlink="http://www.w3.org/1999/xlink" width="200" height="200"><path d="M878 148.4a33.3 33.3 0 0 0-47.1 0L130.6 848.8l593.6-593.6c-43.2-49.6-102.3-84-168.8-94.6v-43.7a43.9 43.9 0 0 0-87.8 0v43.6C330.4 182.5 225 305.8 225 454.1v215.6c0 31.3-7.1 105.7-73 118.8a43.9 43.9 0 0 0-35.2 43v2.3A43.7 43.7 0 0 0 124 858a33.3 33.3 0 0 0 53.6 37.8L878 195.5a33.3 33.3 0 0 0 0-47.1zM870.9 789.5c-65.7-13.2-72.8-87.3-72.8-118.7V454.2a305.2 305.2 0 0 0-18-103.6L253 877.7h15.8l156.4 0.3a87.7 87.7 0 0 0 172.6 0.4l156.4 0.3h108.1a43.8 43.8 0 0 0 43.8-43.8v-2.4a43.8 43.8 0 0 0-35.2-43z" p-id="9819"></path></svg>