<?xml version="1.0" standalone="no"?><!DOCTYPE svg PUBLIC "-//W3C//DTD SVG 1.1//EN" "http://www.w3.org/Graphics/SVG/1.1/DTD/svg11.dtd"><svg t="1714980297124" class="icon" viewBox="0 0 1024 1024" version="1.1" xmlns="http://www.w3.org/2000/svg" p-id="13602" xmlns:xlink="http://www.w3.org/1999/xlink" width="200" height="200"><path d="M212.3 960.2c-20.7 0-37.4-16.7-37.4-37.4V361.6c0-20.7 16.7-37.4 37.4-37.4s37.4 16.7 37.4 37.4v561.2c0 20.7-16.7 37.4-37.4 37.4M212.3 249.4c-20.7 0-37.4-16.7-37.4-37.4V99.7c0-20.7 16.7-37.4 37.4-37.4s37.4 16.7 37.4 37.4V212c0 20.6-16.7 37.4-37.4 37.4M511.6 960.2c-20.7 0-37.4-16.7-37.4-37.4V810.6c0-20.7 16.7-37.4 37.4-37.4s37.4 16.7 37.4 37.4v112.2c0 20.7-16.7 37.4-37.4 37.4M511.6 698.3c-20.7 0-37.4-16.7-37.4-37.4V99.7c0-20.7 16.7-37.4 37.4-37.4S549 79 549 99.7v561.2c0 20.7-16.7 37.4-37.4 37.4M810.9 960.2c-20.7 0-37.4-16.7-37.4-37.4V361.6c0-20.7 16.7-37.4 37.4-37.4s37.4 16.7 37.4 37.4v561.2c0 20.7-16.7 37.4-37.4 37.4M810.9 249.4c-20.7 0-37.4-16.7-37.4-37.4V99.7c0-20.7 16.7-37.4 37.4-37.4s37.4 16.7 37.4 37.4V212c0 20.6-16.7 37.4-37.4 37.4" fill="#C6CCDA" p-id="13603"></path><path d="M212.3 399C150.4 399 100 348.7 100 286.8s50.4-112.2 112.2-112.2c61.9 0 112.2 50.4 112.2 112.2 0.1 61.9-50.3 112.2-112.1 112.2m0-149.6c-20.6 0-37.4 16.8-37.4 37.4s16.8 37.4 37.4 37.4 37.4-16.8 37.4-37.4c0-20.7-16.8-37.4-37.4-37.4M810.9 399c-61.9 0-112.2-50.4-112.2-112.3s50.4-112.2 112.2-112.2c61.9 0 112.2 50.4 112.2 112.2 0 62-50.3 112.3-112.2 112.3m0-149.6c-20.6 0-37.4 16.8-37.4 37.4s16.8 37.4 37.4 37.4c20.7 0 37.4-16.8 37.4-37.4 0-20.7-16.8-37.4-37.4-37.4M511.6 848c-61.9 0-112.2-50.3-112.2-112.2s50.4-112.2 112.2-112.2c61.9 0 112.2 50.4 112.2 112.2 0 61.8-50.4 112.2-112.2 112.2m0-149.7c-20.6 0-37.4 16.7-37.4 37.4 0 20.6 16.8 37.4 37.4 37.4 20.7 0 37.4-16.8 37.4-37.4s-16.8-37.4-37.4-37.4" fill="#C6CCDA" p-id="13604"></path></svg>