<?xml version="1.0" standalone="no"?><!DOCTYPE svg PUBLIC "-//W3C//DTD SVG 1.1//EN" "http://www.w3.org/Graphics/SVG/1.1/DTD/svg11.dtd"><svg t="1714980130352" class="icon" viewBox="0 0 1024 1024" version="1.1" xmlns="http://www.w3.org/2000/svg" p-id="12258" xmlns:xlink="http://www.w3.org/1999/xlink" width="200" height="200"><path d="M726 290c16.569 0 30 13.431 30 30v54L636 548H388L268 374v-54c0-16.569 13.431-30 30-30h428z m-10 40H308v31.544L409.004 508h205.991L716 361.543V330z m-80 258v342c0 16.569-13.431 30-30 30H418c-16.569 0-30-13.431-30-30V588h248z m-40 40H428v292h168V628z m-84 50c13.807 0 25 11.193 25 25v60c0 13.807-11.193 25-25 25s-25-11.193-25-25v-60c0-13.807 11.193-25 25-25z m0-613c11.046 0 20 8.954 20 20v120c0 11.046-8.954 20-20 20s-20-8.954-20-20V85c0-11.046 8.954-20 20-20z m220 55.718c9.566 5.523 12.843 17.755 7.32 27.32l-60 103.924c-5.522 9.565-17.754 12.843-27.32 7.32-9.566-5.523-12.843-17.755-7.32-27.32l60-103.924c5.522-9.565 17.754-12.843 27.32-7.32z m-439 0c9.566-5.523 21.798-2.245 27.32 7.32l60 103.924c5.523 9.565 2.246 21.797-7.32 27.32s-21.798 2.245-27.32-7.32l-60-103.924c-5.523-9.565-2.246-21.797 7.32-27.32z" fill="#222222" p-id="12259"></path></svg>