<?xml version="1.0" standalone="no"?><!DOCTYPE svg PUBLIC "-//W3C//DTD SVG 1.1//EN" "http://www.w3.org/Graphics/SVG/1.1/DTD/svg11.dtd"><svg t="1714985256582" class="icon" viewBox="0 0 1024 1024" version="1.1" xmlns="http://www.w3.org/2000/svg" p-id="18758" xmlns:xlink="http://www.w3.org/1999/xlink" width="200" height="200"><path d="M469.333333 106.666667v810.666666a21.333333 21.333333 0 0 1-36.42 15.086667L225.833333 725.333333H53.333333a53.393333 53.393333 0 0 1-53.333333-53.333333V352a53.393333 53.393333 0 0 1 53.333333-53.333333h172.5l207.08-207.086667A21.333333 21.333333 0 0 1 469.333333 106.666667z m548.42 612.42a21.333333 21.333333 0 0 0 0-30.173334L840.833333 512l176.92-176.913333a21.333333 21.333333 0 1 0-30.173333-30.173334L810.666667 481.833333 633.753333 304.913333a21.333333 21.333333 0 0 0-30.173333 30.173334L780.5 512l-176.92 176.913333a21.333333 21.333333 0 0 0 30.173333 30.173334L810.666667 542.166667l176.913333 176.92a21.333333 21.333333 0 0 0 30.173333 0z" fill="#5C5C66" p-id="18759"></path></svg>