<?xml version="1.0" standalone="no"?><!DOCTYPE svg PUBLIC "-//W3C//DTD SVG 1.1//EN" "http://www.w3.org/Graphics/SVG/1.1/DTD/svg11.dtd"><svg t="1714980430572" class="icon" viewBox="0 0 1116 1024" version="1.1" xmlns="http://www.w3.org/2000/svg" p-id="14607" xmlns:xlink="http://www.w3.org/1999/xlink" width="217.96875" height="200"><path d="M558.458937 857.093709a188.109371 188.109371 0 1 1 185.934696-188.109371 187.293868 187.293868 0 0 1-185.934696 188.109371z m0-321.851872a133.742501 133.742501 0 1 0 131.567826 133.742501 132.926998 132.926998 0 0 0-131.567826-133.742501z" fill="#22262D" p-id="14608"></path><path d="M558.458937 1024A566.230953 566.230953 0 0 1 46.866689 679.585877l-4.893019-10.873374 4.893019-11.145208a566.230953 566.230953 0 0 1 511.592248-343.59862A567.046456 567.046456 0 0 1 1070.051186 657.839129l4.893018 11.145209-4.893018 10.873374a566.774622 566.774622 0 0 1-511.592249 344.142288zM101.505393 668.984338a511.320414 511.320414 0 0 0 456.953544 300.648792 511.320414 511.320414 0 0 0 456.68171-300.648792 511.320414 511.320414 0 0 0-456.68171-300.648792A511.320414 511.320414 0 0 0 101.505393 668.984338z" fill="#22262D" p-id="14609"></path><path d="M558.458937 1024A566.230953 566.230953 0 0 1 46.866689 679.585877l-4.893019-10.873374 4.893019-11.145208a566.230953 566.230953 0 0 1 511.592248-343.59862A567.046456 567.046456 0 0 1 1070.051186 657.839129l4.893018 11.145209-4.893018 10.873374a566.774622 566.774622 0 0 1-511.592249 344.142288zM101.505393 668.984338a511.320414 511.320414 0 0 0 456.953544 300.648792 511.320414 511.320414 0 0 0 456.68171-300.648792 511.320414 511.320414 0 0 0-456.68171-300.648792A511.320414 511.320414 0 0 0 101.505393 668.984338zM558.458937 213.6618a27.183435 27.183435 0 0 1-27.183435-27.183435V27.183435a27.183435 27.183435 0 0 1 54.36687 0v159.29493a27.183435 27.183435 0 0 1-27.183435 27.183435zM139.834037 368.335546a27.183435 27.183435 0 0 1-19.300239-7.883197L7.994376 247.912928A27.183435 27.183435 0 0 1 46.594854 209.31245l112.539422 112.539422a27.183435 27.183435 0 0 1 0 38.600477 27.183435 27.183435 0 0 1-19.300239 7.883197zM977.083838 368.335546a27.183435 27.183435 0 0 1-19.300239-46.483674l112.539421-112.539422a27.183435 27.183435 0 0 1 38.328643 0 27.183435 27.183435 0 0 1 0 38.600478l-112.539421 112.539421a27.183435 27.183435 0 0 1-19.028404 7.883197z" fill="#22262D" p-id="14610"></path></svg>