<?xml version="1.0" standalone="no"?><!DOCTYPE svg PUBLIC "-//W3C//DTD SVG 1.1//EN" "http://www.w3.org/Graphics/SVG/1.1/DTD/svg11.dtd"><svg t="1715248770059" class="icon" viewBox="0 0 1024 1024" version="1.1" xmlns="http://www.w3.org/2000/svg" p-id="35446" xmlns:xlink="http://www.w3.org/1999/xlink" width="200" height="200"><path d="M225.792 864a361.152 361.152 0 0 1-1.792-36c0-117.904 57.112-221 142.048-276.512a49.592 49.592 0 0 0-0.004-82.972C281.112 413 224 309.904 224 192c0-12.168 0.608-24.18 1.792-36h568.416c1.184 11.82 1.792 23.832 1.792 36 0 117.904-57.112 221-142.048 276.512a49.592 49.592 0 0 0 0.004 82.972C738.888 607 796 710.096 796 828c0 12.168-0.608 24.18-1.792 36H225.792z" fill="#07DBFF" p-id="35447"></path><path d="M693.788 316a20.044 20.044 0 0 1 18.352 28.092C679.056 416.672 599.196 468 506 468c-93.196 0-173.056-51.328-205.948-123.992a19.828 19.828 0 0 1 18.16-27.8C396.424 316 615.576 316 693.788 316zM694.8 864a19.376 19.376 0 0 0 17.796-27.048C679.812 763.82 599.64 712 506 712s-173.812 51.82-206.412 125.028a19.188 19.188 0 0 0 17.612 26.776c77.652 0.196 299.948 0.196 377.6 0.196z" fill="#3776FE" p-id="35448"></path><path d="M225.08 800c8.236-106.096 62.828-197.44 140.968-248.512a49.592 49.592 0 0 0-0.004-82.972C291.864 420.028 238.908 335.244 226.688 236h384.64c7.604 0 14.896 3.02 20.276 8.396A28.684 28.684 0 0 1 640 264.672v0.004c0 93.924-45.496 176.052-113.156 220.276a39.496 39.496 0 0 0 0 66.096C594.504 595.272 640 677.4 640 771.324v0.004a28.672 28.672 0 0 1-28.672 28.672H225.08z" fill="#FFFFFF" fill-opacity=".3" p-id="35449"></path><path d="M372.668 575.868c17.736-10.672 40.796-4.936 51.464 12.8 10.672 17.736 4.936 40.796-12.8 51.464 0 0-58.736 34.18-66.128 92.576-2.6 20.536-21.38 35.096-41.912 32.496-20.536-2.6-35.096-21.38-32.496-41.912 11.644-91.984 101.872-147.424 101.872-147.424zM260.504 304.1c-6.676-19.592 3.808-40.916 23.396-47.596 19.592-6.676 40.916 3.808 47.596 23.396 0 0 24.128 75.12 77.708 102.78 18.388 9.492 25.612 32.132 16.116 50.524-9.492 18.388-32.132 25.612-50.524 16.116-76.844-39.672-114.292-145.22-114.292-145.22z" fill="#FFFFFF" fill-opacity=".3" p-id="35450"></path><path d="M840 91a23.008 23.008 0 0 0-23-23H207A23.008 23.008 0 0 0 184 91v46A23.008 23.008 0 0 0 207 160h610a23.008 23.008 0 0 0 23-23v-46z" fill="#FFBC70" p-id="35451"></path><path d="M840 91a23.008 23.008 0 0 0-23-23h-198a23.008 23.008 0 0 0-23 23v46a23.008 23.008 0 0 0 23 23h198a23.008 23.008 0 0 0 23-23v-46z" fill="#FFAB64" p-id="35452"></path><path d="M404 91A23.008 23.008 0 0 0 381 68h-174A23.008 23.008 0 0 0 184 91v46A23.008 23.008 0 0 0 207 160h174a23.008 23.008 0 0 0 23-23v-46z" fill="#FFDF7A" p-id="35453"></path><path d="M840 887a23.008 23.008 0 0 0-23-23H207a23.008 23.008 0 0 0-23 23v46a23.008 23.008 0 0 0 23 23h610a23.008 23.008 0 0 0 23-23v-46z" fill="#FFBC70" p-id="35454"></path><path d="M840 887a23.008 23.008 0 0 0-23-23h-198a23.008 23.008 0 0 0-23 23v46a23.008 23.008 0 0 0 23 23h198a23.008 23.008 0 0 0 23-23v-46z" fill="#FFAB64" p-id="35455"></path><path d="M404 887a23.008 23.008 0 0 0-23-23h-174a23.008 23.008 0 0 0-23 23v46a23.008 23.008 0 0 0 23 23h174a23.008 23.008 0 0 0 23-23v-46z" fill="#FFDF7A" p-id="35456"></path></svg>