<?xml version="1.0" standalone="no"?><!DOCTYPE svg PUBLIC "-//W3C//DTD SVG 1.1//EN" "http://www.w3.org/Graphics/SVG/1.1/DTD/svg11.dtd"><svg t="1715249648559" class="icon" viewBox="0 0 1024 1024" version="1.1" xmlns="http://www.w3.org/2000/svg" p-id="82533" xmlns:xlink="http://www.w3.org/1999/xlink" width="200" height="200"><path d="M850 412.44l-338-264-338 264v459.416c0 37.668 30.58 68.252 68.248 68.252h539.504c37.668 0 68.248-30.584 68.248-68.252V412.44z" fill="#D3E2F9" p-id="82534"></path><path d="M598 940.108h-328v-54.42a21.588 21.588 0 0 1 21.58-21.58h284.84a21.588 21.588 0 0 1 21.58 21.58v54.42z" fill="#7F9ACC" p-id="82535"></path><path d="M538 864.108h-208v-302.42a21.588 21.588 0 0 1 21.58-21.58h164.84a21.588 21.588 0 0 1 21.58 21.58v302.42z" fill="#FF8556" p-id="82536"></path><path d="M515.668 582.724a13.956 13.956 0 0 0-13.948-13.948H366.28a13.956 13.956 0 0 0-13.948 13.948v135.436a13.96 13.96 0 0 0 13.948 13.948h135.44a13.96 13.96 0 0 0 13.948-13.948v-135.436z" fill="#2F5497" p-id="82537"></path><path d="M350 126.864a18.764 18.764 0 0 0-18.756-18.756H212.756a18.764 18.764 0 0 0-18.756 18.756v242.484a18.764 18.764 0 0 0 18.756 18.76h118.488a18.764 18.764 0 0 0 18.756-18.76V126.864z" fill="#FC0050" p-id="82538"></path><path d="M761.332 558.22a13.956 13.956 0 0 0-13.948-13.948h-135.436a13.956 13.956 0 0 0-13.948 13.948v135.44a13.952 13.952 0 0 0 13.948 13.944h135.436a13.952 13.952 0 0 0 13.948-13.944v-135.44z" fill="#2BA7FA" p-id="82539"></path><path d="M470.284 99.06a64.948 64.948 0 0 1 83.432 0l391.464 327.98a30.24 30.24 0 0 1 10.82 23.184v57.176a20.708 20.708 0 0 1-20.708 20.708h-99.624a21.132 21.132 0 0 1-13.552-4.916l-298.144-249.084a18.68 18.68 0 0 0-23.944 0l-298.144 249.084a21.132 21.132 0 0 1-13.552 4.916H88.708A20.708 20.708 0 0 1 68 507.4v-57.176a30.24 30.24 0 0 1 10.82-23.184l391.464-327.98z" fill="#FF366E" p-id="82540"></path><path d="M850 528.108h-14.332a21.132 21.132 0 0 1-13.552-4.916l-298.144-249.084a18.68 18.68 0 0 0-23.944 0l-298.144 249.084a21.132 21.132 0 0 1-13.552 4.916H174l338-280 338 280z" fill="#FC0050" p-id="82541"></path></svg>