<?xml version="1.0" standalone="no"?><!DOCTYPE svg PUBLIC "-//W3C//DTD SVG 1.1//EN" "http://www.w3.org/Graphics/SVG/1.1/DTD/svg11.dtd"><svg t="1715249209356" class="icon" viewBox="0 0 1024 1024" version="1.1" xmlns="http://www.w3.org/2000/svg" p-id="60682" xmlns:xlink="http://www.w3.org/1999/xlink" width="200" height="200"><path d="M512 512m-512 0a512 512 0 1 0 1024 0 512 512 0 1 0-1024 0Z" fill="#FFA726" p-id="60683"></path><path d="M573.952 255.2832l-37.6832 92.16-105.0624 25.7024 10.24 99.7376L486.1952 532.48 358.4 778.24l238.6944 238.592a512.512 512.512 0 0 0 399.36-339.0464z" fill="#EF9926" p-id="60684"></path><path d="M508.1088 263.68a0.512 0.512 0 0 0 0.6144 0c2.6624-3.3792 28.9792-34.9184 56.9344-15.6672 29.4912 20.48 13.6192 63.8976 11.0592 66.4576s-9.6256 5.4272-20.48 0a0.512 0.512 0 0 0-0.8192 0c-1.2288 3.9936-8.4992 29.0816-3.4816 30.72 21.504 7.3728 36.2496 73.8304 44.8512 75.0592s26.4192-33.8944 27.648-36.1472c0-1.8432-5.9392-23.3472-3.072-26.3168 3.9936-10.24 42.2912-23.04 33.1776 17.8176-2.9696 3.8912-10.24 6.144-17.2032 31.9488s-27.0336 46.1824-44.8512 48.64c-14.9504 2.048-23.4496-18.8416-25.8048-25.6a0.512 0.512 0 0 0-1.024 0c-1.9456 10.24-10.24 57.0368-5.12 63.2832s81.2032 56.9344 83.6608 93.7984-55.6032 57.856-56.9344 111.9232a60.5184 60.5184 0 0 0 34.4064 49.0496c0 2.3552-0.8192 15.7696-30.208 3.3792-31.744-13.4144-54.9888-32.6656-55.3984-38.2976 3.072-13.312 19.2512-15.9744 23.4496-25.1904s15.6672-77.6192 40.96-102.4v-0.9216a264.0896 264.0896 0 0 1-72.3968-26.5216h-0.7168a271.7696 271.7696 0 0 1-92.16 101.5808s-49.2544 44.3392-57.2416 57.856a62.6688 62.6688 0 0 0-2.4576 56.0128s-8.6016 21.7088-24.1664-6.144a423.1168 423.1168 0 0 1-26.624-60.2112c0-1.4336 5.0176-12.9024 35.328-10.24a0.6144 0.6144 0 0 0 0.512 0 717.5168 717.5168 0 0 1 46.4896-64.7168c14.5408-14.5408 25.088-15.0528 34.2016-27.7504s17.92-54.8864 32.9728-69.8368a0.512 0.512 0 0 0 0-0.512c-1.536-4.096-17.8176-33.4848 24.576-68.096 0-4.3008 0.7168-65.9456-13.7216-89.2928a47.8208 47.8208 0 0 0-37.376 5.7344A90.9312 90.9312 0 0 0 460.8 440.9344c1.024 0.7168 33.6896 24.8832 11.0592 42.1888s-35.6352-24.9856-35.6352-24.9856-10.24-48.3328-19.6608-82.8416c0 0-7.7824-26.2144 97.1776-51.2 0 0 15.7696-4.8128 12.1856-17.7152a29.9008 29.9008 0 0 1-18.0224-24.6784c0-6.144-4.5056-4.9152-7.9872-3.8912-7.4752 2.1504-11.5712 21.504-6.0416 40.96a0.512 0.512 0 0 1-1.024 0c-10.4448-16.5888-39.0144-73.0112 15.2576-55.0912z" fill="#FFFFFF" p-id="60685"></path><path d="M498.3808 466.432s8.704 18.5344 60.416 21.504l1.4336 6.144 25.3952 20.48s-15.872-7.0656-64.4096 38.4a76.5952 76.5952 0 0 1-47.616-18.0224s-20.992-31.8464 24.7808-68.5056zM512.8192 323.6864s9.1136 47.104-28.4672 53.248a152.6784 152.6784 0 0 1 10.24 34.4064s57.344-12.3904 71.68 0c0 0 19.8656-42.7008-13.7216-65.024a9.3184 9.3184 0 0 1-13.312-0.7168c-6.0416-6.7584-11.6736-21.9136-26.4192-21.9136z" fill="#7E57C2" p-id="60686"></path><path d="M360.0384 697.344a24.4736 24.4736 0 0 0 15.4624 24.576 68.8128 68.8128 0 0 0 0 52.3264 9.3184 9.3184 0 0 1-13.4144 6.8608s-10.24 0-37.376-73.1136c-0.4096 0-0.1024-12.5952 35.328-10.6496zM558.592 690.8928s4.8128 10.8544 28.8768 13.1072a63.0784 63.0784 0 0 0 33.8944 44.8512s1.536 11.5712-7.0656 10.9568-65.7408-20.48-78.0288-45.6704c0 0 0.1024-11.8784 22.3232-23.2448z" fill="#8D6E63" p-id="60687"></path></svg>