<?xml version="1.0" standalone="no"?><!DOCTYPE svg PUBLIC "-//W3C//DTD SVG 1.1//EN" "http://www.w3.org/Graphics/SVG/1.1/DTD/svg11.dtd"><svg t="1715247708977" class="icon" viewBox="0 0 1024 1024" version="1.1" xmlns="http://www.w3.org/2000/svg" p-id="26798" xmlns:xlink="http://www.w3.org/1999/xlink" width="200" height="200"><path d="M512 73.142857l13.897143 47.542857c25.6 87.771429 131.657143 122.148571 204.068571 66.56l39.497143-30.72-16.822857 46.811429c-30.72 86.308571 35.108571 176.274286 126.537143 174.08l49.737143-1.462857-40.96 27.794285c-75.337143 51.931429-75.337143 163.108571 0 215.04l40.96 27.794286-49.737143-1.462857c-91.428571-2.194286-157.257143 87.771429-126.537143 174.08l16.822857 46.811429-39.497143-30.72c-72.411429-55.588571-178.468571-21.211429-204.068571 66.56L512 950.857143l-13.897143-47.542857c-25.6-87.771429-131.657143-122.148571-204.068571-66.56l-39.497143 30.72 16.822857-46.811429c30.72-86.308571-35.108571-176.274286-126.537143-174.08l-49.737143 1.462857 40.96-27.794285c75.337143-51.931429 75.337143-163.108571 0-215.04L95.085714 377.417143l49.737143 1.462857C236.251429 380.342857 301.348571 290.377143 270.628571 204.068571l-16.822857-46.811428 39.497143 30.72c72.411429 55.588571 178.468571 21.211429 204.068572-66.56l14.628571-48.274286z" fill="#FFC931" opacity=".5" p-id="26799"></path><path d="M512 512m-290.377143 0a290.377143 290.377143 0 1 0 580.754286 0 290.377143 290.377143 0 1 0-580.754286 0Z" fill="#FFC931" p-id="26800"></path></svg>