<?xml version="1.0" standalone="no"?><!DOCTYPE svg PUBLIC "-//W3C//DTD SVG 1.1//EN" "http://www.w3.org/Graphics/SVG/1.1/DTD/svg11.dtd"><svg t="1715247337883" class="icon" viewBox="0 0 1024 1024" version="1.1" xmlns="http://www.w3.org/2000/svg" p-id="24581" xmlns:xlink="http://www.w3.org/1999/xlink" width="200" height="200"><path d="M512 491.921569a20.078431 20.078431 0 1 0 20.078431 20.078431 20.078431 20.078431 0 0 0-20.078431-20.078431z m0-451.764706a471.843137 471.843137 0 1 0 471.843137 471.843137A471.843137 471.843137 0 0 0 512 40.156863z m331.294118 491.921568H568.721569a60.235294 60.235294 0 0 1-113.945098-38.851764L306.999216 345.34902a20.078431 20.078431 0 1 1 28.41098-28.410981l144.163137 144.363922A60.235294 60.235294 0 0 1 568.721569 491.921569H843.294118a20.078431 20.078431 0 1 1 0 40.156862z" fill="#FFFFFF" p-id="24582"></path><path d="M512 160.627451a20.078431 20.078431 0 1 0 20.078431 20.078431 20.078431 20.078431 0 0 0-20.078431-20.078431z m0 662.588235a20.078431 20.078431 0 1 0 20.078431 20.078432 20.078431 20.078431 0 0 0-20.078431-20.078432zM180.705882 491.921569a20.078431 20.078431 0 1 0 20.078432 20.078431 20.078431 20.078431 0 0 0-20.078432-20.078431z m579.764706-199.981177a20.078431 20.078431 0 1 0-28.41098 0 20.078431 20.078431 0 0 0 28.41098 0z m-496.941176 440.119216a20.078431 20.078431 0 1 0 28.41098 0 20.078431 20.078431 0 0 0-28.41098 0z m468.530196 0a20.078431 20.078431 0 1 0 28.41098 0 20.078431 20.078431 0 0 0-28.41098 0zM263.529412 263.529412a20.078431 20.078431 0 1 0 28.41098 0 20.078431 20.078431 0 0 0-28.41098 0z" fill="#85AB70" p-id="24583"></path><path d="M491.921569 512a20.078431 20.078431 0 1 0 20.078431-20.078431 20.078431 20.078431 0 0 0-20.078431 20.078431z m20.078431-60.235294a60.235294 60.235294 0 0 1 56.721569 40.156863h31.322353a90.352941 90.352941 0 0 0-142.054902-52.304314l21.584313 21.584314A60.235294 60.235294 0 0 1 512 451.764706z m0 120.470588a60.235294 60.235294 0 0 1-57.223529-79.008627L431.686275 470.337255A90.352941 90.352941 0 1 0 600.043922 532.078431h-31.322353A60.235294 60.235294 0 0 1 512 572.235294z" fill="#F7D54A" p-id="24584"></path><path d="M550.048627 371.45098a10.039216 10.039216 0 0 0-12.247843 7.127844l-20.078431 73.185882a59.532549 59.532549 0 0 1 19.375686 5.320784l20.078432-73.286274a10.039216 10.039216 0 0 0-7.127844-12.348236zM446.745098 718.406275a10.039216 10.039216 0 0 0 19.375686 5.220392l40.658824-151.893334a60.235294 60.235294 0 0 1-19.476079-4.818823z m83.827451-213.935687a20.078431 20.078431 0 0 0-4.015686-6.224313 20.078431 20.078431 0 0 0-30.117647 1.003921l-0.501961 0.602353a20.078431 20.078431 0 0 0-2.911373 5.12v0.903529a19.174902 19.174902 0 0 0 0.602353 14.155295 20.078431 20.078431 0 0 0 4.61804 6.425098 19.375686 19.375686 0 0 0 19.57647 4.618039 20.078431 20.078431 0 0 0 10.039216-6.927059 20.078431 20.078431 0 0 0 2.710588-5.019608v-1.003921a18.974118 18.974118 0 0 0 0-13.352157z" fill="#EE6A56" p-id="24585"></path><path d="M512 80.313725a431.686275 431.686275 0 1 0 431.686275 431.686275A431.686275 431.686275 0 0 0 512 80.313725z m0 843.294118a411.607843 411.607843 0 1 1 411.607843-411.607843 411.607843 411.607843 0 0 1-411.607843 411.607843z" opacity=".15" p-id="24586"></path><path d="M471.843137 762.980392v20.078432h20.078432v-20.078432z m20.078432 40.156863h20.078431v-20.078431h-20.078431z m20.078431-40.156863v20.078432h20.078431v-20.078432z m20.078431 40.156863h20.078432v-20.078431h-20.078432z m-100.392156-40.156863v20.078432h20.078431v-20.078432z m20.078431 40.156863h20.078431v-20.078431h-20.078431z m100.392157-40.156863v20.078432h20.078431v-20.078432z m20.078431 20.078432v20.078431h20.078431v-20.078431z" opacity=".1" p-id="24587"></path><path d="M843.294118 491.921569H568.721569a60.235294 60.235294 0 0 0-89.148236-30.619608L335.309804 317.038431a20.078431 20.078431 0 1 0-28.41098 28.410981L454.776471 493.226667A60.235294 60.235294 0 0 0 568.721569 532.078431H843.294118a20.078431 20.078431 0 1 0 0-40.156862z m-331.294118 40.156862a20.078431 20.078431 0 1 1 20.078431-20.078431 20.078431 20.078431 0 0 1-20.078431 20.078431z m0-532.078431a512 512 0 1 0 512 512A512 512 0 0 0 512 0z m0 983.843137a471.843137 471.843137 0 1 1 471.843137-471.843137 471.843137 471.843137 0 0 1-471.843137 471.843137z" opacity=".85" p-id="24588"></path></svg>