<?xml version="1.0" standalone="no"?><!DOCTYPE svg PUBLIC "-//W3C//DTD SVG 1.1//EN" "http://www.w3.org/Graphics/SVG/1.1/DTD/svg11.dtd"><svg t="1715247855651" class="icon" viewBox="0 0 1024 1024" version="1.1" xmlns="http://www.w3.org/2000/svg" p-id="30567" xmlns:xlink="http://www.w3.org/1999/xlink" width="200" height="200"><path d="M862.3104 495.5648c0-191.5904-155.2896-346.88-346.88-346.88S168.5504 303.9744 168.5504 495.5648c0 101.4272 43.52 192.6144 112.896 256.0512l-75.52 92.1088a41.20576 41.20576 0 0 0 5.7344 58.0096 41.09312 41.09312 0 0 0 26.112 9.3696c11.9296 0 23.7568-5.12 31.8976-15.104l78.9504-96.256a345.4976 345.4976 0 0 0 166.8096 42.7008c61.7472 0 119.7056-16.2304 169.984-44.4928l80.384 98.048a41.14944 41.14944 0 0 0 31.8976 15.104c9.216 0 18.432-3.072 26.112-9.3696a41.20576 41.20576 0 0 0 5.7344-58.0096l-77.568-94.5664c67.84-63.2832 110.336-153.4464 110.336-253.5936z m-249.8048 153.4464c-10.2912 0-20.5824-3.84-28.5696-11.52l-93.6448-90.2144a41.1648 41.1648 0 0 1-12.6464-29.696V335.4624c0-22.784 18.4832-41.216 41.216-41.216s41.216 18.4832 41.216 41.216v164.608l81.0496 78.0288c16.384 15.7696 16.896 41.8816 1.1264 58.3168a41.32864 41.32864 0 0 1-29.7472 12.5952z" fill="#F23D4F" p-id="30568"></path><path d="M323.328 153.6512l-6.0928-4.7104c-52.3264-40.448-126.6176-35.3792-173.0048 11.776-52.736 53.6064-49.3056 140.3392 6.8096 189.696 33.3824-83.6096 94.6176-153.0368 172.288-196.7616z" fill="#FF716E" p-id="30569"></path><path d="M883.6096 160.7168c-46.3872-47.104-120.6784-52.1728-173.0048-11.776l-4.8128 3.7376c77.8752 43.3664 139.4176 112.4352 173.2096 195.7888 54.0672-49.664 56.7296-134.8608 4.608-187.7504z" fill="#F23D4F" p-id="30570"></path><path d="M891.1872 169.216c-2.4064-2.9184-4.864-5.7856-7.5776-8.4992-46.3872-47.104-120.6784-52.1728-173.0048-11.776l-4.8128 3.7376c77.8752 43.3664 139.4176 112.4352 173.2096 195.7888 0.768-0.7168 1.4336-1.4848 2.2016-2.2528 8.192-39.6288 12.544-80.6912 12.544-122.7776 0-18.2784-0.9728-36.352-2.56-54.2208zM515.4304 148.6848c-191.5904 0-346.88 155.2896-346.88 346.88 0 101.4272 43.52 192.6144 112.896 256.0512l-57.9584 70.656c22.1696 2.4576 44.6976 3.8912 67.584 3.8912 12.3904 0 24.6784-0.512 36.9152-1.2288l20.6336-25.1904c12.6976 6.9632 25.856 13.1584 39.4752 18.5344 216.4224-35.0208 394.24-185.2928 468.4288-385.8432-29.7472-161.4336-171.1104-283.7504-341.0944-283.7504z m126.8224 487.68a41.14944 41.14944 0 0 1-29.696 12.6464c-10.2912 0-20.5824-3.84-28.5696-11.52l-93.6448-90.2144a41.1648 41.1648 0 0 1-12.6464-29.696V335.4624c0-22.784 18.4832-41.216 41.216-41.216s41.216 18.4832 41.216 41.216v164.608l81.0496 78.0288c16.384 15.7696 16.8448 41.8816 1.0752 58.2656z" fill="#FC4956" p-id="30571"></path><path d="M515.4304 148.6848c-191.5904 0-346.88 155.2896-346.88 346.88 0 39.7312 6.7584 77.8752 19.0976 113.4592 107.6224-10.9056 206.7456-50.2272 290.048-110.1312V335.4624c0-22.784 18.4832-41.216 41.216-41.216s41.216 18.4832 41.216 41.216v92.0064c61.44-63.7952 108.9536-141.056 137.6768-226.9696a345.4976 345.4976 0 0 0-182.3744-51.8144z" fill="#FF5C64" p-id="30572"></path><path d="M460.0832 153.1392c-117.76 18.8928-215.6032 96.9728-262.2464 202.8032a604.672 604.672 0 0 0 262.2464-202.8032z" fill="#FF716E" p-id="30573"></path></svg>