<?xml version="1.0" standalone="no"?><!DOCTYPE svg PUBLIC "-//W3C//DTD SVG 1.1//EN" "http://www.w3.org/Graphics/SVG/1.1/DTD/svg11.dtd"><svg t="1714978826495" class="icon" viewBox="0 0 1024 1024" version="1.1" xmlns="http://www.w3.org/2000/svg" p-id="866" xmlns:xlink="http://www.w3.org/1999/xlink" width="200" height="200"><path d="M512 767.0272m-71.40864 0a71.40864 71.40864 0 1 0 142.81728 0 71.40864 71.40864 0 1 0-142.81728 0Z" fill="#666666" p-id="867"></path><path d="M512 358.98368c-122.9056 0-234.51136 48.31744-316.9024 126.976-14.57664 13.91616-15.08864 37.00736-0.83456 51.25632A36.22912 36.22912 0 0 0 219.89888 547.84a35.0208 35.0208 0 0 0 24.33536-9.71264C313.87136 471.45472 408.20736 430.39232 512 430.39232s198.12864 41.0624 267.76576 107.73504a35.01056 35.01056 0 0 0 24.33536 9.71264c9.28768 0 18.59584-3.584 25.63584-10.624 14.24896-14.24896 13.74208-37.34016-0.83456-51.25632-82.39104-78.65856-193.9968-126.976-316.9024-126.976z" fill="#666666" p-id="868"></path><path d="M512 532.4032c-74.97216 0-143.17568 28.89728-194.12992 76.14464-14.82752 13.7472-15.1296 37.14048-0.82944 51.44064a35.77344 35.77344 0 0 0 25.33888 10.50112 35.24608 35.24608 0 0 0 24.07424-9.43104c38.23104-35.49696 89.38496-57.24672 145.54624-57.24672 56.16128 0 107.3152 21.74976 145.54624 57.24672a35.24608 35.24608 0 0 0 24.07424 9.43104 35.7632 35.7632 0 0 0 25.33888-10.50112c14.30016-14.30016 13.99296-37.69344-0.82944-51.44064-50.95424-47.25248-119.15776-76.14464-194.12992-76.14464zM512.0768 185.56416c-169.75872 0-323.81952 66.94912-437.42208 175.7952a35.70176 35.70176 0 0 0 22.48704 63.41632c10.26048 0 19.47648-4.352 25.98912-11.27424l0.09728 0.09728C228.25984 312.5248 365.89056 256.9728 512.0768 256.9728c146.41664 0 284.24192 55.74656 389.32992 157.12768A35.69664 35.69664 0 0 0 962.56 389.07904a35.5584 35.5584 0 0 0-10.0352-24.7808l0.03072-0.03072c-0.14336-0.14336-0.29696-0.27648-0.44544-0.41984l-0.0512-0.04608c-113.83808-110.30528-268.9536-178.23744-439.98208-178.23744z" fill="#666666" p-id="869"></path></svg>