<?xml version="1.0" standalone="no"?><!DOCTYPE svg PUBLIC "-//W3C//DTD SVG 1.1//EN" "http://www.w3.org/Graphics/SVG/1.1/DTD/svg11.dtd"><svg t="1714979114598" class="icon" viewBox="0 0 1024 1024" version="1.1" xmlns="http://www.w3.org/2000/svg" p-id="2108" xmlns:xlink="http://www.w3.org/1999/xlink" width="200" height="200"><path d="M397.64737 493.804392l214.808864-229.599729a35.441187 35.441187 0 0 0-3.015061-51.312922L366.359002 8.322706a35.270523 35.270523 0 0 0-58.025699 27.07866v369.600951L117.019158 214.825931a35.270523 35.270523 0 0 0-49.947612 0.227551 35.441187 35.441187 0 0 0 0.227552 50.061388L299.117456 495.51103l-232.671678 248.600301c-12.856675 14.790865-11.3207 37.204713 3.413277 50.061388a35.270523 35.270523 0 0 0 48.127198-1.535974l190.290162-203.431276v399.353344c0 19.512564 15.814848 35.327411 35.327411 35.384299 9.67095 0 19.000572-3.982156 25.599573-11.03626l243.082171-256.905941a35.441187 35.441187 0 0 0-0.739543-49.492508L397.64737 493.804392z m-18.773021-382.457626l156.498725 131.695583-156.441837 167.250546V111.346766z m0 788.466859v-324.830141l158.432915 157.46582-158.376027 167.364321z m339.336567-592.487903a35.270523 35.270523 0 0 0-49.037405-9.67095 35.498075 35.498075 0 0 0-9.67095 49.151181 226.982884 226.982884 0 0 1 38.228696 126.575668 226.869108 226.869108 0 0 1-38.171808 126.575669 35.441187 35.441187 0 0 0 9.67095 49.15118 35.270523 35.270523 0 0 0 48.923629-9.67095c32.88123-49.094293 50.345828-106.949329 50.232051-166.055899a297.922146 297.922146 0 0 0-50.175163-166.055899z m211.566251-17.009494a488.951851 488.951851 0 0 0-45.453464-85.218135 35.270523 35.270523 0 0 0-48.980517-9.67095 35.441187 35.441187 0 0 0-9.67095 49.094293 420.800098 420.800098 0 0 1 70.768598 234.26454 421.767193 421.767193 0 0 1-70.825486 234.321428 35.498075 35.498075 0 0 0 11.377588 48.809853c15.814848 9.841614 36.46517 5.688794 47.330767-9.38651A491.398032 491.398032 0 0 0 967.095657 478.899752c0-65.19358-12.572235-128.566746-37.31849-188.526636z" fill="#151515" p-id="2109"></path></svg>