<?xml version="1.0" standalone="no"?><!DOCTYPE svg PUBLIC "-//W3C//DTD SVG 1.1//EN" "http://www.w3.org/Graphics/SVG/1.1/DTD/svg11.dtd"><svg t="1714985108492" class="icon" viewBox="0 0 1024 1024" version="1.1" xmlns="http://www.w3.org/2000/svg" p-id="17470" xmlns:xlink="http://www.w3.org/1999/xlink" width="200" height="200"><path d="M304.241778 723.484444a28.273778 28.273778 0 0 1 0 39.992889l-32.711111 32.711111a28.273778 28.273778 0 0 1-39.992889-39.964444l32.739555-32.711111a28.273778 28.273778 0 0 1 39.964445 0z m459.747555 0l32.739556 32.739556a28.273778 28.273778 0 1 1-39.964445 39.992889l-32.739555-32.739556a28.273778 28.273778 0 1 1 39.964444-39.992889zM512.284444 262.542222a251.107556 251.107556 0 1 1 0 502.186667 251.107556 251.107556 0 0 1 0-502.186667z m0 56.519111a194.56 194.56 0 1 0 0 389.12 194.56 194.56 0 0 0 0-389.12z m282.168889-85.76a28.273778 28.273778 0 0 1 0 39.992889l-32.711111 32.711111a28.273778 28.273778 0 0 1-39.992889-39.964444l32.711111-32.711111a28.273778 28.273778 0 0 1 39.992889 0z m-520.675555 0l32.739555 32.739556a28.273778 28.273778 0 0 1-39.964444 39.992889L233.813333 273.265778A28.273778 28.273778 0 1 1 273.777778 233.244444z m240.355555-119.324444c15.616 0 28.273778 12.657778 28.273778 28.273778v46.307555a28.273778 28.273778 0 0 1-56.547555 0V142.222222c0-15.616 12.657778-28.273778 28.273777-28.273778z m0 693.248c15.616 0 28.273778 12.657778 28.273778 28.273778V881.777778a28.273778 28.273778 0 0 1-56.547555 0v-46.307556c0-15.616 12.657778-28.273778 28.273777-28.273778zM114.488889 513.621333c0-15.644444 12.657778-28.273778 28.273778-28.273777h46.279111a28.273778 28.273778 0 1 1 0 56.519111H142.791111a28.273778 28.273778 0 0 1-28.273778-28.245334z m693.248 0c0-15.644444 12.657778-28.273778 28.273778-28.273777h46.307555a28.273778 28.273778 0 1 1 0 56.519111H835.982222a28.273778 28.273778 0 0 1-28.273778-28.245334z" fill="#434343" p-id="17471"></path></svg>